<svg xmlns="http://www.w3.org/2000/svg" width="992" height="500" viewBox="0 0 1920 1079.997">
  <path id="Exclusion_4" data-name="Exclusion 4" d="M-17747-1878h-1919.98c.1-.012.6-.089.809-.122l.01,0,0-.019c6.771-1.127,60.975-9.908,417.162-66.991,69.744-11.178,185.256-24.645,319.006-40.239l.016,0c94.064-10.966,200.68-23.4,305.3-36.7,120.051-15.27,219.031-29.352,302.6-43.049,48.8-8,93.129-16.015,131.744-23.824,41.852-8.463,78.465-16.98,108.824-25.314,16-4.392,30.635-8.835,43.5-13.207,13.277-4.512,25.047-9.076,34.986-13.567a167.629,167.629,0,0,0,25.549-13.923c6.9-4.745,12.012-9.548,15.182-14.276a58.341,58.341,0,0,0,8.295-16.143,82.614,82.614,0,0,0,3.809-19.147c1.111-12.936-.006-27.983-3.42-46-6.385-33.672-19.82-72.538-34.045-113.687l-.078-.231c-8.877-25.686-18.057-52.247-25.865-78.637-4.229-14.282-7.674-27.207-10.535-39.512-3.221-13.852-5.607-26.509-7.293-38.693a285.267,285.267,0,0,1-2.84-37.22,193.648,193.648,0,0,1,2.822-35.094,151.5,151.5,0,0,1,3.918-16.545,134.442,134.442,0,0,1,5.783-15.769,125.743,125.743,0,0,1,7.809-14.911,123.748,123.748,0,0,1,9.984-13.97c72.082-87.334,138.123-165.14,180.834-215.034,46.1-53.847,75.828-87.829,76.123-88.166Zm-1919.994,0-.006-1077.529.836,1077.386C-19666.852-1878.03-19666.973-1878.006-19666.994-1878Z" transform="translate(19667 2957.999)" fill="#c8400d"/>
</svg>
