<svg xmlns="http://www.w3.org/2000/svg" width="1200.002" height="2399.546" viewBox="0 0 1200.002 2399.546">
  <g id="Group_2028" data-name="Group 2028" transform="translate(0 -0.134)">
    <path id="Exclusion_3" data-name="Exclusion 3" d="M-1446.929-8271.883a12.941,12.941,0,0,1-2.228-.118h5.739C-1444.771-8271.922-1445.952-8271.883-1446.929-8271.883ZM-249.156-8272H-1443.418c17.254-1.009,81.616-9.565,306.052-67.139,39.093-10.028,96.769-21.824,163.552-35.482h.007c54.147-11.075,115.519-23.628,176.179-37.175,69.712-15.569,127.338-29.968,176.171-44.018,28.535-8.21,54.5-16.449,77.187-24.486a664.371,664.371,0,0,0,64.112-26.09c9.467-4.534,18.144-9.121,25.792-13.636a198.12,198.12,0,0,0,20.889-14.022,107.1,107.1,0,0,0,15.442-14.406,56.642,56.642,0,0,0,9.45-14.785,84.805,84.805,0,0,0,5.2-14.621,85.269,85.269,0,0,0,2.372-14.688,108.661,108.661,0,0,0-2.2-29.736c-4.047-20.036-12.506-40.426-21.462-62.012l0-.008c-5.538-13.35-11.265-27.152-16.122-41.367-2.622-7.674-4.756-14.767-6.524-21.683a207.33,207.33,0,0,1-4.5-22.448,171.389,171.389,0,0,1-1.727-23.292,155.527,155.527,0,0,1,1.794-24.211,158.326,158.326,0,0,1,6.064-25.209,180.417,180.417,0,0,1,11.083-26.281,1079.254,1079.254,0,0,1,64.311-108.728,966.619,966.619,0,0,1,58.731-78.357c14.714-17.631,29.375-33.808,43.575-48.082,10.868-10.925,17.6-16.829,18.842-17.9V-8272Z" transform="translate(1449.157 9122)" fill="#c8400d"/>
    <path id="Path_22" data-name="Path 22" d="M-.934,899.059h1200S697.842,1113.7,453.723,1523.179-.934,2448.739-.934,2448.739Z" transform="translate(0.934 -49.059)" fill="#c8400d"/>
  </g>
</svg>
