<svg xmlns="http://www.w3.org/2000/svg" width="992.414" height="1400.685" viewBox="0 0 992.414 1400.685">
  <g id="Group_2027" data-name="Group 2027" transform="translate(0.414 0)">
    <path id="Exclusion_5" data-name="Exclusion 5" d="M-21656.99-2357.915c-.01,0-.01,0-.01,0s.393-.082.408-.085h.313C-21656.719-2357.941-21656.939-2357.915-21656.99-2357.915Zm992.4-.087h-991.693c4.248-.589,33.9-5.117,217.029-34.409,13.023-2.083,29.48-4.656,48.537-7.634,94.7-14.8,253.188-39.58,393.242-66.955,36.844-7.2,70.52-14.223,100.092-20.871,32.621-7.333,61.18-14.419,84.879-21.062,25.783-7.226,46.543-14.13,61.705-20.521a142.955,142.955,0,0,0,19.674-9.83c5.213-3.253,8.877-6.422,10.893-9.42a30.18,30.18,0,0,0,4.313-8.376,42.723,42.723,0,0,0,1.98-9.936c.578-6.712-.006-14.52-1.781-23.87-3.314-17.464-10.3-37.635-17.7-58.99-4.627-13.356-9.412-27.167-13.492-40.927a278.427,278.427,0,0,1-9.27-40.583,147.707,147.707,0,0,1-1.479-19.314,100.268,100.268,0,0,1,1.469-18.211,73.856,73.856,0,0,1,5.045-16.769,64.281,64.281,0,0,1,9.25-14.988,425.777,425.777,0,0,0,42.705-61.613,331.788,331.788,0,0,0,23.17-49.969,235.735,235.735,0,0,0,9.559-33.511,109.735,109.735,0,0,0,1.869-12.229V-2958Z" transform="translate(21656.586 2957.999)" fill="#c8400d"/>
    <path id="Path_22" data-name="Path 22" d="M-1.277,1066h992s-432.442,132.935-627.8,337.743S-.934,1866.687-.934,1866.687Z" transform="translate(1.277 -466.002)" fill="#c8400d"/>
  </g>
</svg>
