<svg xmlns="http://www.w3.org/2000/svg" width="400" height="738.949" viewBox="0 0 400 738.949">
  <g id="Group_2026" data-name="Group 2026" transform="translate(0 0.001)">
    <path id="Exclusion_6" data-name="Exclusion 6" d="M-11004.845,645.522h-399.983c1.5-.436,14.829-4.378,87.193-25.909,3.96-1.178,8.383-2.476,13.5-3.979l.293-.086c32.439-9.519,86.733-25.45,134.477-43.914,26.357-10.194,47.828-20.054,63.816-29.307,18.892-10.934,30.646-21.315,34.936-30.857,22.081-28.9,10.626-60.434-1.5-93.824-4.957-13.647-10.081-27.755-12.659-41.59a92.371,92.371,0,0,1-1.692-20.659,66.036,66.036,0,0,1,3.919-20.367,307.858,307.858,0,0,1,24.406-44.314,350.522,350.522,0,0,1,25.346-33.726c8.161-9.6,15.324-16.972,19.9-21.463,4.881-4.795,7.925-7.417,8.052-7.526V645.521Z" transform="translate(11404.844 -228)" fill="#c8400d"/>
    <path id="Path_22" data-name="Path 22" d="M-.935,1078.142h400S224.5,1130.386,145.742,1212.948-.934,1399.57-.934,1399.57Z" transform="translate(0.935 -660.622)" fill="#c8400d"/>
  </g>
</svg>
