<svg xmlns="http://www.w3.org/2000/svg" width="1920.787" height="2657.803" viewBox="0 0 1920.787 2657.803">
  <g id="Group_2028" data-name="Group 2028" transform="translate(0.787 0.119)">
    <path id="Exclusion_3" data-name="Exclusion 3" d="M-1448.213-8041.881h0V-8042s-.07.012-.165.026c-.225.034-.6.092-.622.092,0,0,.152-.03.787-.136,6.459-1.074,60.12-9.764,418-67.119,62.578-10.029,154.89-21.824,261.778-35.482,86.658-11.073,184.878-23.624,282.013-37.177,111.6-15.571,203.838-29.97,281.991-44.019,45.7-8.215,87.264-16.453,123.551-24.486,39.365-8.716,73.892-17.493,102.623-26.091,15.152-4.533,29.042-9.121,41.284-13.636,12.642-4.662,23.891-9.38,33.436-14.022a165.833,165.833,0,0,0,24.717-14.406c6.751-4.911,11.84-9.886,15.126-14.784a58.379,58.379,0,0,0,8.3-16.144,82.468,82.468,0,0,0,3.809-19.148c1.113-12.937-.006-27.983-3.421-46-6.38-33.657-19.817-72.531-34.043-113.687-8.9-25.762-18.112-52.4-25.947-78.869-4.23-14.289-7.676-27.214-10.535-39.512-3.223-13.862-5.609-26.52-7.294-38.693a285.531,285.531,0,0,1-2.841-37.22,193.506,193.506,0,0,1,2.825-35.093,151.712,151.712,0,0,1,3.915-16.545,134.617,134.617,0,0,1,5.786-15.77,125.209,125.209,0,0,1,7.808-14.909,123.494,123.494,0,0,1,9.982-13.971c16.647-20.169,35.585-40.892,56.291-61.595,18.821-18.818,39.525-38.044,61.539-57.144,37.071-32.163,78.488-64.562,123.1-96.3,17.532-12.47,35.6-24.862,53.7-36.833,14.483-9.578,29.025-18.913,43.223-27.745,23.714-14.751,38.665-23.229,39.289-23.584l.006,0v1080Z" transform="translate(1448.212 9121.881)" fill="#c8400d"/>
    <path id="Path_22" data-name="Path 22" d="M-.934,1071.059h1920s-801.957,242.649-1192.548,652.122S-.934,2648.743-.934,2648.743Z" transform="translate(0.934 8.941)" fill="#c8400d"/>
  </g>
</svg>
