<svg xmlns="http://www.w3.org/2000/svg" width="1400" height="1937.187" viewBox="0 0 1400 1937.187">
  <g id="Group_2028" data-name="Group 2028" transform="translate(0.787 0.119)">
    <path id="Exclusion_3" data-name="Exclusion 3" d="M.574,787.264h0v-.086l-.12.019c-.164.025-.438.067-.454.067,0,0,.111-.022.574-.1,4.708-.783,43.819-7.117,304.665-48.921,45.611-7.31,112.894-15.907,190.8-25.862,63.162-8.071,134.752-17.218,205.55-27.1,81.34-11.349,148.571-21.844,205.534-32.083,33.306-5.988,63.6-11.992,90.052-17.847,28.692-6.353,53.857-12.75,74.8-19.017,11.044-3.3,21.167-6.648,30.09-9.938,9.214-3.4,17.414-6.837,24.37-10.221a120.833,120.833,0,0,0,18.016-10.5,45.015,45.015,0,0,0,11.025-10.776,42.545,42.545,0,0,0,6.046-11.767,60.11,60.11,0,0,0,2.776-13.957c.811-9.429,0-20.4-2.494-33.529-4.65-24.532-14.444-52.866-24.813-82.862-6.49-18.777-13.2-38.192-18.912-57.485-3.083-10.415-5.595-19.835-7.679-28.8-2.349-10.1-4.088-19.329-5.316-28.2a208.1,208.1,0,0,1-2.071-27.128,141.038,141.038,0,0,1,2.059-25.578,110.617,110.617,0,0,1,2.854-12.059,98.158,98.158,0,0,1,4.217-11.494,91.246,91.246,0,0,1,5.691-10.867,89.982,89.982,0,0,1,7.276-10.183c12.133-14.7,25.937-29.8,41.029-44.895,13.718-13.716,28.809-27.729,44.854-41.65,27.02-23.442,57.207-47.058,89.723-70.187,12.778-9.089,25.947-18.121,39.139-26.846,10.556-6.981,21.156-13.785,31.5-20.223C1388.643,6.44,1399.54.261,1400,0l0,0V787.178Z" transform="translate(-0.787 -0.119)" fill="#c8400d"/>
    <path id="Path_22" data-name="Path 22" d="M-.934,1071.059H1398.492s-584.521,176.859-869.21,475.311S-.934,2220.982-.934,2220.982Z" transform="translate(0.721 -283.914)" fill="#c8400d"/>
  </g>
</svg>
