<svg xmlns="http://www.w3.org/2000/svg" width="1920.002" height="1997.002" viewBox="0 0 1920.002 1997.002">
  <path id="Exclusion_2" data-name="Exclusion 2" d="M-10225-961h-1920v-432.317l.069-.11c2.23-3.517,22.772-35.836,56.794-86.925,21.179-31.8,43.473-64.726,66.26-97.85,28.463-41.373,57.8-83.208,87.2-124.341,74.782-104.635,150.267-205.222,224.354-298.968,44-55.668,87.98-109.51,130.734-160.032,47.027-55.571,93.733-108.506,138.822-157.334,11.639-12.6,24-25.341,36.755-37.86,12.479-12.251,25.671-24.631,39.211-36.8,26.187-23.528,54.729-47.2,84.838-70.369,28.7-22.085,59.589-44.293,91.8-66.008,30.6-20.625,63.192-41.342,96.876-61.575,116.519-69.991,251.165-137.451,400.2-200.505,58.55-24.771,119.485-48.913,181.112-71.753,49.3-18.271,99.155-35.758,148.188-51.975,43.614-14.426,78.485-25.154,100.059-31.614,23.363-7,36.6-10.633,36.731-10.667Z" transform="translate(12145.001 2958.001)" fill="#fff"/>
</svg>
