<?xml version="1.0" encoding="UTF-8"?>
<svg xmlns="http://www.w3.org/2000/svg" xmlns:xlink="http://www.w3.org/1999/xlink" version="1.1" id="Layer_1" x="0px" y="0px" viewBox="0 0 1600 700" style="enable-background:new 0 0 1600 700;" xml:space="preserve"> <style type="text/css"> .st0{fill:url(#SVGID_1_);} .st1{fill:url(#SVGID_00000035499812458480402840000010133476882199450765_);} .st2{fill:url(#SVGID_00000085223442620087933280000005085699227316943746_);} .st3{fill:url(#SVGID_00000113322736942914183170000013053811021934721462_);} .st4{fill:url(#SVGID_00000082352389608799596340000009868546379865854848_);} .st5{fill:url(#SVGID_00000124847293885265042780000013111261948832791486_);} .st6{fill:url(#SVGID_00000139984379432071564430000007965518392959075477_);} .st7{fill:url(#SVGID_00000026842490985739864570000017542636951894209456_);} .st8{fill:url(#SVGID_00000024685780229414457720000003074522412311894942_);} .st9{fill:url(#SVGID_00000137106639793157714180000013833108850062131587_);} </style> <linearGradient id="SVGID_1_" gradientUnits="userSpaceOnUse" x1="-5.9181" y1="664.9751" x2="2033.7466" y2="-126.8726" gradientTransform="matrix(1 0 0 -1 0 702.098)"> <stop offset="0" style="stop-color:#8D07FF"/> <stop offset="1" style="stop-color:#45CDFF"/> </linearGradient> <rect class="st0" width="1600" height="700"/> <g> <linearGradient id="SVGID_00000019640400479297700590000013178897893273146023_" gradientUnits="userSpaceOnUse" x1="1.71" y1="368.6285" x2="478.548" y2="368.6285" gradientTransform="matrix(1 0 0 -1 0 702.098)"> <stop offset="0" style="stop-color:#740BFF"/> <stop offset="1" style="stop-color:#6533FF"/> </linearGradient> <path style="fill:url(#SVGID_00000019640400479297700590000013178897893273146023_);" d="M488.6,333.5L488.6,333.5 c0-90.6-73.5-164.1-164.1-164.1H0v328.2h324.6C415.2,497.6,488.6,424.1,488.6,333.5z"/> <linearGradient id="SVGID_00000119837435087981163800000013711593695663300532_" gradientUnits="userSpaceOnUse" x1="907.65" y1="493.7535" x2="1599.739" y2="493.7535" gradientTransform="matrix(1 0 0 -1 0 702.098)"> <stop offset="0" style="stop-color:#5F41FF"/> <stop offset="1" style="stop-color:#4888FF"/> </linearGradient> <path style="fill:url(#SVGID_00000119837435087981163800000013711593695663300532_);" d="M1070.3,44.3 c-90.6,0-164.1,73.5-164.1,164.1v0c0,90.6,73.5,164.1,164.1,164.1H1600V44.3H1070.3z"/> <linearGradient id="SVGID_00000093864774622931798070000003353611760632408213_" gradientUnits="userSpaceOnUse" x1="788.816" y1="353.1745" x2="1310.292" y2="353.1745" gradientTransform="matrix(1 0 0 -1 0 702.098)"> <stop offset="0" style="stop-color:#623CFF"/> <stop offset="1" style="stop-color:#4E7BFF"/> </linearGradient> <path style="fill:url(#SVGID_00000093864774622931798070000003353611760632408213_);" d="M1218.7,444.3h-332 c-52.6,0-95.3-42.7-95.3-95.3v0c0-52.6,42.7-95.3,95.3-95.3h332c52.6,0,95.3,42.7,95.3,95.3v0 C1314.1,401.6,1271.4,444.3,1218.7,444.3z"/> <linearGradient id="SVGID_00000153703750779249407580000004995044897719980972_" gradientUnits="userSpaceOnUse" x1="158.293" y1="207.6445" x2="672.845" y2="207.6445" gradientTransform="matrix(1 0 0 -1 0 702.098)"> <stop offset="0" style="stop-color:#7117FF"/> <stop offset="1" style="stop-color:#5E4AFF"/> </linearGradient> <path style="fill:url(#SVGID_00000153703750779249407580000004995044897719980972_);" d="M582.9,589.8h-332 c-52.6,0-95.3-42.7-95.3-95.3v0c0-52.6,42.7-95.3,95.3-95.3h332c52.6,0,95.3,42.7,95.3,95.3v0C678.2,547.1,635.5,589.8,582.9,589.8 z"/> <linearGradient id="SVGID_00000098180086172401953800000014270423157210360705_" gradientUnits="userSpaceOnUse" x1="155.614" y1="253.757" x2="474.966" y2="253.757" gradientTransform="matrix(1 0 0 -1 0 702.098)"> <stop offset="0" style="stop-color:#5E14FF"/> <stop offset="1" style="stop-color:#532CFF"/> </linearGradient> <path style="fill:url(#SVGID_00000098180086172401953800000014270423157210360705_);" d="M475,399.1h-224 c-52.6,0-95.3,42.7-95.3,95.3l0,0c0,1,0,2.1,0.1,3.1h168.9C389.8,497.6,448.9,458.9,475,399.1z"/> </g> <linearGradient id="SVGID_00000013898424842584469250000009281174740614400135_" gradientUnits="userSpaceOnUse" x1="914.641" y1="389.084" x2="1299.9969" y2="389.084" gradientTransform="matrix(1 0 0 -1 0 702.098)"> <stop offset="0" style="stop-color:#5036FF"/> <stop offset="1" style="stop-color:#4262FF"/> </linearGradient> <path style="fill:url(#SVGID_00000013898424842584469250000009281174740614400135_);" d="M1314.1,348.9c0-52.6-42.7-95.3-95.3-95.3 H912.5c20.2,70.4,84.6,118.8,157.8,118.8h240.8C1313.1,364.7,1314.1,356.9,1314.1,348.9z"/> <g> <linearGradient id="SVGID_00000114769453607278084550000002568934777821315254_" gradientUnits="userSpaceOnUse" x1="479.0521" y1="122.8014" x2="754.4726" y2="122.8014"> <stop offset="0" style="stop-color:#6C24FF"/> <stop offset="1" style="stop-color:#5F46FF"/> </linearGradient> <path style="fill:url(#SVGID_00000114769453607278084550000002568934777821315254_);" d="M527,174.8h181c28.7,0,52-23.3,52-52v0 c0-28.7-23.3-52-52-52H527c-28.7,0-52,23.3-52,52v0C475,151.5,498.2,174.8,527,174.8z"/> <linearGradient id="SVGID_00000081606436174477850570000006677212954067107979_" gradientUnits="userSpaceOnUse" x1="1312.2931" y1="564.9167" x2="1609.3264" y2="564.9167"> <stop offset="0" style="stop-color:#4D78FF"/> <stop offset="1" style="stop-color:#4782FF"/> </linearGradient> <path style="fill:url(#SVGID_00000081606436174477850570000006677212954067107979_);" d="M1392,469.6c-52.6,0-95.3,42.7-95.3,95.3 v0c0,52.6,42.7,95.3,95.3,95.3h208V469.6H1392z"/> <linearGradient id="SVGID_00000100357514198148191970000004870183368007551370_" gradientUnits="userSpaceOnUse" x1="501.421" y1="656.8591" x2="1023.1688" y2="656.8591"> <stop offset="0" style="stop-color:#6339FF"/> <stop offset="1" style="stop-color:#5563FF"/> </linearGradient> <path style="fill:url(#SVGID_00000100357514198148191970000004870183368007551370_);" d="M926,613.7H594 c-49.6,0-90.3,37.9-94.9,86.3h521.7C1016.3,651.6,975.6,613.7,926,613.7z"/> </g> </svg>