<svg xmlns="http://www.w3.org/2000/svg" width="234.818" height="101.094" viewBox="0 0 234.818 101.094">
  <g id="Group_2022" data-name="Group 2022" transform="translate(-91.192 -75)">
    <path id="path300" d="M83.246,104.247a8.666,8.666,0,0,1-6.257-10.324,8.342,8.342,0,0,1,2.134-3.942,9.528,9.528,0,0,1,7.193-2.808c.886,0,1-.042.884-.332a28.623,28.623,0,0,1-1.031-5.336c-.1-1.091-.205-5.978-.224-10.86-.033-8.461-.016-8.945.358-10.323a14.1,14.1,0,0,1,3.993-6.633c2.048-1.9,2.9-2.3,11.054-5.254,3.522-1.276,4.069-1.945,4.069-4.98v-1.8l-.83-1.212a11.194,11.194,0,0,1-1.857-4.666c-.221-1.289-.236-1.312-.924-1.5a3.069,3.069,0,0,1-1.592-4.779c.44-.648.445-.7.176-1.672a18.175,18.175,0,0,1-.271-6.115,14.116,14.116,0,0,1,7.659-10.691,11.921,11.921,0,0,1,10.766.041c2.047,1,2.927,1.829,2.927,2.748,0,.325.232.494,1.154.839a3.15,3.15,0,0,1,1.684,1.163,22.459,22.459,0,0,1,2.54,5.171,21.664,21.664,0,0,1,.028,6.733c-.238,1.229-.232,1.283.177,1.668a2.913,2.913,0,0,1,.625,1.2,3.032,3.032,0,0,1-1.96,3.618c-.739.282-.853.4-.945,1.005a13.3,13.3,0,0,1-2,5.341c-.6.848-.426,5.637.2,5.637a1.333,1.333,0,0,0,.5-.4,3.255,3.255,0,0,1,2.052-.918,17.831,17.831,0,0,1,4.794,1.942,5.388,5.388,0,0,1,2.126,3.365c.205,1.042.259,1.116,1.278,1.75a28.127,28.127,0,0,1,3.251,2.8c2.04,1.993,2.252,2.271,3.148,4.12,1.492,3.08,1.465,2.838,1.456,13.221-.008,8.65-.031,9.255-.409,10.871a24.07,24.07,0,0,1-.888,2.912,8.071,8.071,0,0,0-.441,1.229c.026.015.853.126,1.838.245a8.467,8.467,0,0,1,5.456,2.584,8.577,8.577,0,0,1-.105,12.056,7.871,7.871,0,0,1-4.043,2.3c-1.767.417-58.017.407-59.741-.01Zm32.411-2.571a14.327,14.327,0,0,0,8.435-5.77c1.447-2.147,3.6-4.028,7.123-6.22.282-.176-2.034-.227-10.578-.236-9.9-.01-10.972-.041-11.285-.324a1.087,1.087,0,0,1-.2-1.312c.414-.619.927-.642,14.478-.642h13.514l.548-1.086c1.548-3.069,1.765-5.043,1.689-15.346-.058-7.859-.068-8.053-.5-9.255a12.808,12.808,0,0,0-.838-1.874l-.4-.647-.5,2.535c-1.516,7.636-5.031,13.782-10.043,17.559-2.075,1.563-3.2,2.12-3.816,1.886a1.2,1.2,0,0,1-.61-1.415,8.654,8.654,0,0,1,1.767-1.346,23.884,23.884,0,0,0,9.326-12.733c1.518-4.541,1.85-7.443,1.048-9.165-.4-.856-2-2.543-2.409-2.543-.087,0-.209.234-.271.519a34.51,34.51,0,0,1-2.135,6c-3.449,7.181-9.616,13.894-17.918,19.5-1.946,1.314-2.161,1.415-2.6,1.213a1.26,1.26,0,0,1-.7-1.395,7.512,7.512,0,0,1,1.813-1.5c9.477-6.4,16-14.1,18.688-22.067,1.292-3.825,1.3-5.9.042-7.088-.69-.651-3.632-1.872-4.088-1.7a4.564,4.564,0,0,0-.814,1.852,43.805,43.805,0,0,1-11.28,19.119,34.7,34.7,0,0,1-12.953,8.022l-2.035.718.014,2.711a17.984,17.984,0,0,0,.969,6.49l.349.943,1.411.048a15.563,15.563,0,0,1,1.823.142,1.094,1.094,0,0,1,.669,1.85c-.3.27-1.423.311-9.868.364-8.7.055-9.611.09-10.436.406a7.71,7.71,0,0,0-3.453,3.244A6.427,6.427,0,0,0,81.7,101.09c1.766,1.217,1.164,1.178,17.391,1.13l14.732-.043,1.834-.5Zm27.941.011a6.694,6.694,0,0,0,3.155-3.155,5.033,5.033,0,0,0,.5-2.672,4.737,4.737,0,0,0-.528-2.68,7.49,7.49,0,0,0-3.479-3.271,12.49,12.49,0,0,0-3.015-.421,7.656,7.656,0,0,0-3.65.4,22.878,22.878,0,0,0-8.618,4.973,30.358,30.358,0,0,0-2.485,2.917,13.952,13.952,0,0,1-4.1,3.918l-.943.6,11.048-.053,11.048-.053,1.067-.5ZM96.8,86.275c-.8-2.636-.86-3.223-.956-10.2-.084-6.108-.061-6.9.213-7.319a.947.947,0,0,1,.856-.469c1.042,0,1.142.3,1.142,3.413a11.452,11.452,0,0,0,.173,2.82,36.661,36.661,0,0,0,5.129-2.081c8.377-4.195,14.947-12.169,18.428-22.367l.448-1.312-.548-.577a5.631,5.631,0,0,1-1.492-3.552,7.159,7.159,0,0,0-.15-1.275c-.032,0-.662.3-1.4.672-3.471,1.742-6.784,1.606-10.816-.443-.078-.04-.142.345-.142.854a5.881,5.881,0,0,1-2.7,4.926c-.335.2-2.648,1.109-5.141,2.017s-5.041,1.916-5.661,2.242a12.131,12.131,0,0,0-6.037,9.186c-.063.675-.034,5.307.064,10.293.155,7.873.227,9.289.549,10.766a20.516,20.516,0,0,0,.7,2.5l.325.8h7.288ZM90.5,79.05c-.359-.359-.378-.63-.378-5.542,0-4.764.027-5.189.345-5.477a.966.966,0,0,1,1.467.085c.332.366.364.792.416,5.5.05,4.588.024,5.138-.265,5.458A1.069,1.069,0,0,1,90.5,79.05Zm-.074-13.51a2.162,2.162,0,0,1-.412-.945c-.228-1.215.8-2.12,1.723-1.515.385.253.463.456.463,1.214a1.551,1.551,0,0,1-.345,1.223A1.028,1.028,0,0,1,90.424,65.54Zm26.388-23.128a9.585,9.585,0,0,0,5.315-5.479c.3-.87.373-1.724.436-5.25.051-2.885.009-4.29-.133-4.461a1.881,1.881,0,0,0-.951-.35,3.023,3.023,0,0,1-2.211-1.522,6.489,6.489,0,0,1-.4-1.968,2.88,2.88,0,0,0-.269-1.369c-.1,0-.874.179-1.722.4a6.6,6.6,0,0,1-4.576-.194l-.913-.4-.479.62c-2.118,2.744-4.558,4.3-5.463,3.477-.187-.17-.4-.252-.467-.182-.255.255-.135,9.551.136,10.571a9.1,9.1,0,0,0,6.4,6.4,10.325,10.325,0,0,0,5.3-.285Zm-14.3-11.853c-.174-.174-.677.359-.677.717a1.16,1.16,0,0,0,.331.674c.315.317.333.295.39-.478a2.374,2.374,0,0,0-.043-.912Zm22.837,1.206c.315-.481.227-.974-.2-1.139-.208-.08-.269.089-.269.741a2.066,2.066,0,0,0,.09.844,1.378,1.378,0,0,0,.382-.446Zm-21.809-8.6c.785-1.473,2.045-2.663,2.819-2.663.807,0,1.23.695,1.062,1.744l-.127.794.507-.466a18.292,18.292,0,0,0,1.526-1.833c1.3-1.751,1.577-1.826,3.342-.922a4.1,4.1,0,0,0,3.785.378,7.31,7.31,0,0,1,4.923.368,3.606,3.606,0,0,0,.976.448,1.5,1.5,0,0,0-.152-.63c-.318-.843-.076-1.54.6-1.716l.56-.146-.463-.775a2.4,2.4,0,0,0-1.594-1.188,2.691,2.691,0,0,1-2.019-2.069c-.221-1.105-3.653-2.474-6.218-2.481-6.517-.016-11.706,6.69-10.756,13.9l.146,1.11.235-1.35a9.583,9.583,0,0,1,.849-2.5Zm21.324,1.445c-.012-2.08-.018-2.108-.27-1.3a4.043,4.043,0,0,1-.755,1.345c-.417.435-.449.537-.2.633a2.186,2.186,0,0,1,.691.78,2.817,2.817,0,0,0,.468.666,15.038,15.038,0,0,0,.063-2.125Zm-2.9-.486a3.025,3.025,0,0,0-.571-.779c-.253-.21-.3-.186-.3.168,0,.627.347,1.144.767,1.144.352,0,.358-.034.1-.533Z" transform="translate(14.452 65.238)" fill="#c8400d"/>
    <g id="headset-help-svgrepo-com2" transform="translate(123.669 91.066)">
      <path id="Path_16" data-name="Path 16" d="M18.873,14.315V12.932a2.292,2.292,0,0,0-.331-1.43l-.38-.32c-.083-.07-.163.141-.163.429v4.025c0,.288.08.5.163.429l.38-.32A2.292,2.292,0,0,0,18.873,14.315Z" transform="translate(-1.008 -7.606)" stroke="#000" stroke-width="1.5"/>
      <path id="Path_17" data-name="Path 17" d="M25.725,13.705v2.732a4.082,4.082,0,0,1-4.082,4.082H14.5" transform="translate(-8.297 -6.233)" fill="none" stroke="#000" stroke-width="0.5"/>
      <path id="Path_18" data-name="Path 18" d="M12,21H10a1,1,0,0,1,0-2h2a1,1,0,0,1,0,2Z" transform="translate(-5 -5.714)"/>
    </g>
    <text id="Reception" transform="translate(172.01 131.401)" fill="#060606" font-size="35" font-family="SegoeUI, Segoe UI"><tspan x="0" y="0">Reception</tspan></text>
    <text id="Monk" transform="translate(172.01 167.094)" fill="#c8400d" font-size="35" font-family="SegoeUI, Segoe UI"><tspan x="0" y="0">Monk</tspan></text>
  </g>
</svg>
