<svg xmlns="http://www.w3.org/2000/svg" width="169" height="220.023" viewBox="0 0 169 220.023">
  <g id="Group_2030" data-name="Group 2030" transform="translate(-122.667 -55.286)">
    <g id="g138" transform="translate(122.667 55.286)">
      <path id="path300" d="M91.839,229.048c-10.378-2.511-17.183-13.739-14.521-23.96a19.36,19.36,0,0,1,4.952-9.148c3.925-4.24,9.734-6.508,16.693-6.518,2.057,0,2.311-.1,2.051-.77a66.427,66.427,0,0,1-2.392-12.383c-.242-2.531-.476-13.873-.52-25.2-.077-19.638-.038-20.759.831-23.957a32.719,32.719,0,0,1,9.266-15.394c4.752-4.4,6.731-5.34,25.655-12.194,8.175-2.961,9.444-4.514,9.444-11.558V83.788l-1.926-2.813a25.98,25.98,0,0,1-4.309-10.829c-.513-2.991-.547-3.045-2.144-3.476-4.71-1.268-6.571-6.854-3.7-11.092,1.021-1.5,1.033-1.62.408-3.88A42.18,42.18,0,0,1,131,37.506c1.8-11.138,8.357-20.294,17.776-24.811a27.667,27.667,0,0,1,24.985.1c4.75,2.327,6.794,4.245,6.794,6.378,0,.755.538,1.146,2.679,1.947a7.311,7.311,0,0,1,3.909,2.7,52.123,52.123,0,0,1,5.895,12c.826,3.171.86,11.516.064,15.627-.552,2.853-.539,2.978.411,3.872a6.76,6.76,0,0,1,1.45,2.78,7.037,7.037,0,0,1-4.549,8.4c-1.716.655-1.98.936-2.194,2.333a30.877,30.877,0,0,1-4.653,12.395c-1.388,1.969-.99,13.082.469,13.082a3.094,3.094,0,0,0,1.163-.937,7.555,7.555,0,0,1,4.763-2.131c1.544,0,8.831,2.952,11.126,4.507a12.5,12.5,0,0,1,4.934,7.81c.476,2.419.6,2.59,2.966,4.062a65.279,65.279,0,0,1,7.546,6.5c4.735,4.627,5.226,5.269,7.306,9.563,3.462,7.147,3.4,6.587,3.378,30.684-.019,20.076-.071,21.48-.948,25.23a55.854,55.854,0,0,1-2.062,6.758,18.725,18.725,0,0,0-1.024,2.853c.06.036,1.98.291,4.266.568,5.394.652,9.406,2.551,12.663,6a19.905,19.905,0,0,1-.244,27.98,18.267,18.267,0,0,1-9.382,5.333c-4.1.967-134.649.945-138.65-.023Zm75.221-5.968c8.6-2.352,15.166-6.846,19.576-13.391,3.357-4.983,8.356-9.348,16.532-14.436.655-.408-4.721-.528-24.55-.548-22.987-.023-25.465-.094-26.191-.751a2.524,2.524,0,0,1-.466-3.044c.96-1.437,2.15-1.49,33.6-1.49h31.364l1.271-2.52c3.592-7.124,4.1-11.705,3.92-35.615-.135-18.24-.159-18.689-1.161-21.479a29.733,29.733,0,0,0-1.946-4.35l-.922-1.5-1.168,5.884c-3.518,17.721-11.677,31.986-23.309,40.751-4.815,3.628-7.429,4.92-8.858,4.377a2.775,2.775,0,0,1-1.415-3.284,20.082,20.082,0,0,1,4.1-3.125c9.716-6.255,17.331-16.651,21.645-29.552,3.524-10.539,4.294-17.274,2.433-21.271-.925-1.986-4.634-5.9-5.592-5.9-.2,0-.485.542-.629,1.205a80.1,80.1,0,0,1-4.955,13.917c-8,16.667-22.318,32.245-41.586,45.259-4.515,3.05-5.015,3.283-6.04,2.816a2.924,2.924,0,0,1-1.633-3.237c.112-.43,2.006-2,4.208-3.486,21.994-14.859,37.126-32.726,43.372-51.215,3-8.877,3.028-13.688.1-16.451-1.6-1.51-8.429-4.344-9.488-3.937-.406.156-1.174,1.9-1.889,4.3-5.26,17.615-14.273,32.891-26.18,44.373a80.532,80.532,0,0,1-30.062,18.618l-4.723,1.665.032,6.291c.033,6.48.683,10.834,2.25,15.061l.811,2.188,3.275.111a36.111,36.111,0,0,1,4.231.329c2.2.5,3.072,2.918,1.552,4.294-.691.626-3.3.722-22.9.845-20.2.126-22.305.209-24.221.942a17.894,17.894,0,0,0-8.015,7.529,14.916,14.916,0,0,0,4.818,18.471c4.1,2.825,2.7,2.734,40.362,2.623l34.19-.1,4.256-1.164Zm64.847.026a15.536,15.536,0,0,0,7.322-7.322c.97-2.069,1.161-3.087,1.161-6.2,0-3.192-.176-4.084-1.225-6.22-1.513-3.081-5.218-6.564-8.074-7.591a28.988,28.988,0,0,0-7-.977c-4.443-.2-5.233-.116-8.471.929-7.675,2.476-15.081,6.749-20,11.541a70.457,70.457,0,0,0-5.767,6.771,32.381,32.381,0,0,1-9.514,9.094l-2.19,1.385,25.641-.123,25.641-.123,2.476-1.161ZM123.29,187.337c-1.868-6.118-2-7.481-2.218-23.679-.195-14.176-.141-16.016.494-16.986a2.2,2.2,0,0,1,1.986-1.087c2.418,0,2.651.7,2.651,7.921,0,3.661.177,6.544.4,6.544.831,0,8.354-3.052,11.9-4.83,19.441-9.735,34.69-28.243,42.769-51.911l1.039-3.044-1.271-1.339a13.069,13.069,0,0,1-3.462-8.243,16.616,16.616,0,0,0-.349-2.959c-.075,0-1.536.7-3.246,1.561-8.056,4.043-15.745,3.728-25.1-1.028-.181-.092-.329.8-.329,1.982a13.649,13.649,0,0,1-6.259,11.432c-.777.469-6.146,2.575-11.932,4.68s-11.7,4.447-13.138,5.2c-7.442,3.908-13.207,12.68-14.011,21.319-.146,1.567-.079,12.317.148,23.889.359,18.272.527,21.559,1.275,24.985a47.615,47.615,0,0,0,1.616,5.808l.754,1.863h16.914ZM108.67,170.57c-.834-.834-.877-1.461-.877-12.863,0-11.056.062-12.043.8-12.712a2.242,2.242,0,0,1,3.4.2c.77.851.845,1.838.965,12.764.117,10.648.055,11.926-.616,12.667a2.482,2.482,0,0,1-3.678-.053Zm-.171-31.355a5.018,5.018,0,0,1-.957-2.194c-.529-2.82,1.858-4.92,4-3.517.894.586,1.074,1.058,1.074,2.818,0,1.491-.236,2.327-.8,2.839A2.386,2.386,0,0,1,108.5,139.215Zm61.242-53.677a22.245,22.245,0,0,0,12.334-12.717c.7-2.019.867-4,1.012-12.184.119-6.7.022-9.956-.308-10.354a4.365,4.365,0,0,0-2.208-.812,7.017,7.017,0,0,1-5.132-3.533,15.061,15.061,0,0,1-.928-4.568c-.113-1.748-.394-3.178-.623-3.178s-2.028.414-4,.921c-4.223,1.087-7.457.95-10.621-.45l-2.12-.938-1.111,1.439c-4.917,6.367-10.578,9.971-12.679,8.07-.435-.394-.923-.584-1.084-.422-.592.592-.314,22.167.316,24.533A21.129,21.129,0,0,0,157.441,86.2a23.963,23.963,0,0,0,12.3-.662Zm-33.2-27.509c-.4-.4-1.572.832-1.572,1.665a2.692,2.692,0,0,0,.767,1.563c.731.735.773.684.9-1.11a5.51,5.51,0,0,0-.1-2.118Zm53,2.8c.731-1.116.527-2.261-.472-2.644-.482-.185-.624.206-.624,1.719a4.8,4.8,0,0,0,.209,1.959,3.2,3.2,0,0,0,.887-1.034ZM138.927,40.865c1.822-3.418,4.746-6.18,6.543-6.18,1.873,0,2.855,1.612,2.465,4.048l-.295,1.842,1.176-1.082a42.456,42.456,0,0,0,3.541-4.255c3.028-4.063,3.659-4.238,7.757-2.141,3.528,1.805,5.485,2,8.783.877,3.206-1.093,8.675-.684,11.425.853a8.371,8.371,0,0,0,2.265,1.04,3.482,3.482,0,0,0-.353-1.463c-.739-1.957-.176-3.574,1.386-3.982l1.3-.34-1.074-1.8c-.884-1.481-1.539-1.969-3.7-2.757-2.811-1.025-4.219-2.468-4.686-4.8-.513-2.565-8.478-5.743-14.43-5.757-15.125-.037-27.167,15.527-24.963,32.264l.339,2.577.546-3.134a22.242,22.242,0,0,1,1.971-5.809Zm49.491,3.354c-.029-4.828-.042-4.891-.627-3.014a9.384,9.384,0,0,1-1.751,3.121c-.968,1.01-1.042,1.247-.46,1.47a5.073,5.073,0,0,1,1.6,1.811,6.537,6.537,0,0,0,1.087,1.545,34.9,34.9,0,0,0,.147-4.931Zm-6.725-1.128a7.022,7.022,0,0,0-1.326-1.807c-.587-.488-.686-.431-.686.389,0,1.454.805,2.655,1.78,2.655.816,0,.831-.08.233-1.237Z" transform="translate(-76.739 -9.762)" fill="#C8400D"/>
    </g>
    <g id="headset-help-svgrepo-com2" transform="translate(163.238 50.286)">
      <path id="Path_16" data-name="Path 16" d="M23.263,21.4V16.9c0-2.2-.822-4.117-1.993-4.65l-2.289-1.042c-.5-.227-.981.459-.981,1.4V25.7c0,.936.483,1.622.981,1.4l2.289-1.042C22.441,25.519,23.263,23.6,23.263,21.4Z" transform="translate(56.66 35.133)" stroke="#000" stroke-width="1.5"/>
      <path id="Path_17" data-name="Path 17" d="M39.743,13.705v6.34a9.33,9.33,0,0,1-9.179,9.474H14.5" transform="translate(37.548 46.687)" fill="none" stroke="#000" stroke-width="1.5"/>
      <path id="Path_18" data-name="Path 18" d="M18.184,25.123H12.061a3.061,3.061,0,1,1,0-6.123h6.123a3.061,3.061,0,1,1,0,6.123Z" transform="translate(31.803 54.143)" stroke="#000" stroke-width="1.5"/>
    </g>
  </g>
</svg>
